<?xml version="1.0" encoding="UTF-8" standalone="no"?>
<!DOCTYPE svg PUBLIC "-//W3C//DTD SVG 1.1//EN" "http://www.w3.org/Graphics/SVG/1.1/DTD/svg11.dtd">
<svg width="100%" height="100%" viewBox="0 0 701 316" version="1.1" xmlns="http://www.w3.org/2000/svg" xmlns:xlink="http://www.w3.org/1999/xlink" xml:space="preserve" xmlns:serif="http://www.serif.com/" style="fill-rule:evenodd;clip-rule:evenodd;stroke-linejoin:round;stroke-miterlimit:2;">
    <g transform="matrix(1,0,0,1,-161.995066,-354.384103)">
        <g transform="matrix(0,0.060831,0.060831,0,145.991999,276.644138)">
            <path fill="#7C5CFF" d="M3640,11759C2418,11639 1473,10718 1309,9485C1277,9245 1265,4380 1296,4380C1305,4380 1331,4418 1353,4465C1426,4614 1636,4877 1912,5166L2180,5446L2180,6263C2180,6712 2187,7080 2195,7081C2203,7081 2388,6899 2604,6676L2999,6270L3304,6588C3473,6763 3610,6914 3610,6923C3610,6931 3388,7162 3118,7434C2847,7707 2585,7985 2536,8053C1688,9216 2477,10867 3880,10865C5235,10864 6034,9288 5265,8134C5145,7954 4988,7787 3993,6780C1803,4564 1781,4540 1575,4130C711,2413 1876,356 3762,266C4915,210 5981,963 6338,2085C6463,2478 6460,2402 6460,5168L6460,7686L6348,7508C6190,7256 6106,7152 5816,6849L5560,6582L5560,4950L5156,5356L4752,5761L4446,5456C4277,5288 4142,5140 4145,5128C4148,5116 4372,4877 4644,4598C4915,4319 5170,4047 5209,3995C5723,3319 5671,2320 5091,1703C4033,576 2200,1340 2193,2910C2191,3567 2317,3793 3169,4660C4835,6353 5686,7224 5788,7339C6416,8047 6619,9048 6326,9990C5976,11111 4817,11874 3640,11759Z" style="fill-rule:nonzero;"/>
        </g>
    </g>
</svg>
